<svg id="Layer_1" data-name="Layer 1" xmlns="http://www.w3.org/2000/svg" viewBox="0 0 86.35 86.35"><defs><style>.cls-1{fill:#0060ff;}.cls-2{fill:#fff;}</style></defs><title>Workarea-Badge-Blue</title><rect class="cls-1" width="86.35" height="86.35" rx="25.9" ry="25.9"/><path class="cls-2" d="M63.32,48.15,54.16,70A3.31,3.31,0,0,1,53,71.43a2.92,2.92,0,0,1-1.73.55h-.53A3,3,0,0,1,49,71.43,3.28,3.28,0,0,1,47.85,70L38.69,48.15A2.85,2.85,0,0,1,38.43,47a2.4,2.4,0,0,1,.68-1.71,2.27,2.27,0,0,1,1.69-.71,2.3,2.3,0,0,1,1.29.4A2.21,2.21,0,0,1,43,46L51,66.4l8-20.41a2.49,2.49,0,0,1,2.16-1.37,2.27,2.27,0,0,1,1.69.71A2.4,2.4,0,0,1,63.58,47,3,3,0,0,1,63.32,48.15Z" transform="translate(-18.02 -15.13)"/><path class="cls-2" d="M83.71,48.15,74.55,70a3.31,3.31,0,0,1-1.16,1.39,2.92,2.92,0,0,1-1.73.55h-.53a3,3,0,0,1-1.74-.55A3.28,3.28,0,0,1,68.24,70l-4.56-10.9,2.5-6L71.39,66.4l8-20.41a2.3,2.3,0,0,1,.87-1,2.33,2.33,0,0,1,3,.31A2.4,2.4,0,0,1,84,47,3,3,0,0,1,83.71,48.15Z" transform="translate(-18.02 -15.13)"/></svg>